<?xml version="1.0" encoding="UTF-8" standalone="no"?>
<svg
   viewBox="0 0 20 16"
   version="1.1"
   id="svg4"
   sodipodi:docname="earth-asia-solid.svg"
   width="20"
   height="16"
   inkscape:version="1.2.1 (9c6d41e410, 2022-07-14)"
   xmlns:inkscape="http://www.inkscape.org/namespaces/inkscape"
   xmlns:sodipodi="http://sodipodi.sourceforge.net/DTD/sodipodi-0.dtd"
   xmlns="http://www.w3.org/2000/svg"
   xmlns:svg="http://www.w3.org/2000/svg">
  <defs
     id="defs8" />
  <sodipodi:namedview
     id="namedview6"
     pagecolor="#ffffff"
     bordercolor="#000000"
     borderopacity="0.25"
     inkscape:showpageshadow="2"
     inkscape:pageopacity="0.0"
     inkscape:pagecheckerboard="0"
     inkscape:deskcolor="#d1d1d1"
     showgrid="false"
     inkscape:zoom="18.495262"
     inkscape:cx="4.3795001"
     inkscape:cy="16.436642"
     inkscape:window-width="1920"
     inkscape:window-height="1017"
     inkscape:window-x="-8"
     inkscape:window-y="-8"
     inkscape:window-maximized="1"
     inkscape:current-layer="svg4" />
  <!--!Font Awesome Free 6.7.2 by @fontawesome - https://fontawesome.com License - https://fontawesome.com/license/free Copyright 2025 Fonticons, Inc.-->
  <path
     d="m 3.7356109,9.1947588 0.9644248,0.1916667 c 0.2403457,0.048678 0.4867759,-0.02738 0.66019,-0.2007953 L 5.8287475,8.7171093 C 6.1816601,8.3641961 6.7749183,8.4615517 6.9970098,8.9057345 l 0.2829386,0.562835 c 0.1460327,0.2920658 0.4441831,0.4776486 0.7727567,0.4776486 0.4624373,0 0.7940533,-0.4441829 0.66019,-0.8883657 L 8.5303541,8.4524242 C 8.390406,7.9839023 8.7402762,7.5123388 9.2300946,7.5123388 h 0.069974 c 0.4076748,0 0.7879684,-0.2038377 1.0131024,-0.5415383 L 10.638702,6.4809819 C 10.809074,6.2223828 10.799947,5.8846812 10.614368,5.6382512 L 10.12455,4.9841456 C 9.8111882,4.5673445 10.024152,3.9649588 10.532225,3.83718 l 0.517199,-0.1308213 c 0.228177,-0.057805 0.413761,-0.2190484 0.501989,-0.4380978 L 12.050358,2.0239397 C 11.39321,1.8018478 10.687384,1.6771116 9.9511364,1.6771116 c -3.49566,0 -6.3280876,2.8324281 -6.3280876,6.3280873 0,0.4076755 0.039551,0.8062235 0.1125669,1.1895599 z M 16.139271,9.3347057 c -0.09127,-0.00915 -0.182542,-0.00311 -0.273811,0.024344 l -0.480692,0.1338638 c -0.203837,0.057805 -0.419844,-0.02738 -0.532411,-0.2038378 l -0.06085,-0.094311 C 14.608966,8.9087838 14.292561,8.7353702 13.951818,8.7353702 c -0.340744,0 -0.657148,0.1734136 -0.839689,0.4593944 l -0.185583,0.2890233 c -0.0426,0.066931 -0.10344,0.1247363 -0.173414,0.1612445 l -1.098288,0.6145546 c -0.550665,0.307278 -0.7758,0.985721 -0.5172,1.560726 l 0.167329,0.377251 c 0.261643,0.584131 0.934001,0.86707 1.536387,0.641935 l 0.07909,-0.03042 c 0.304235,-0.112566 0.64802,-0.06693 0.909662,0.124737 l 0.04563,0.03346 c 1.131755,-0.897494 1.950146,-2.172237 2.263509,-3.6356079 z M 2.1627161,8.0051989 a 7.7884157,7.7884157 0 1 1 15.5768309,0 7.7884157,7.7884157 0 1 1 -15.5768309,0 z m 4.3961954,2.8020051 c -0.06389,0.261642 0.094313,0.526327 0.3529125,0.590215 l 0.9735519,0.243388 c 0.2616421,0.06389 0.5263265,-0.09431 0.5902158,-0.352912 0.06389,-0.2586 -0.094313,-0.526327 -0.3529125,-0.590216 L 7.1491274,10.454291 c -0.261642,-0.06389 -0.5263266,0.09431 -0.5902159,0.352913 z m 2.7989617,-0.60847 c -0.06389,0.261642 0.094313,0.526327 0.3529126,0.590215 0.2585997,0.06389 0.5263272,-0.09431 0.5902162,-0.352912 L 10.54439,9.4624845 C 10.608276,9.2008428 10.450079,8.9361587 10.191477,8.8722688 9.9328774,8.8083799 9.6651505,8.9665819 9.6012612,9.225181 Z M 12.60406,3.6759355 C 12.363715,3.5542417 12.07165,3.6546369 11.949956,3.8949848 L 11.46318,4.8685369 c -0.121695,0.240346 -0.0213,0.5324108 0.219048,0.6541046 0.240346,0.1216947 0.532411,0.021299 0.654106,-0.2190484 L 12.823109,4.330041 c 0.121695,-0.2403459 0.0213,-0.5324117 -0.219049,-0.6541055 z"
     id="path2"
     style="stroke-width:0.0304236" />
</svg>
