<?xml version="1.0" encoding="UTF-8" standalone="no"?>
<svg
   viewBox="0 0 16 16.000004"
   version="1.1"
   id="svg184"
   sodipodi:docname="star-solid.svg"
   width="16"
   height="16.000004"
   xmlns:inkscape="http://www.inkscape.org/namespaces/inkscape"
   xmlns:sodipodi="http://sodipodi.sourceforge.net/DTD/sodipodi-0.dtd"
   xmlns="http://www.w3.org/2000/svg"
   xmlns:svg="http://www.w3.org/2000/svg">
  <defs
     id="defs188" />
  <sodipodi:namedview
     id="namedview186"
     pagecolor="#ffffff"
     bordercolor="#000000"
     borderopacity="0.25"
     inkscape:showpageshadow="2"
     inkscape:pageopacity="0.0"
     inkscape:pagecheckerboard="0"
     inkscape:deskcolor="#d1d1d1"
     showgrid="false" />
  <!--!Font Awesome Free 6.5.1 by @fontawesome - https://fontawesome.com License - https://fontawesome.com/license/free Copyright 2024 Fonticons, Inc.-->
  <path
     d="M 8.8704569,0.562436 C 8.7098679,0.218725 8.3705099,0 7.9978229,0 7.6251359,0 7.2888079,0.218725 7.1251899,0.562436 L 5.1769133,4.696349 0.82586432,5.358775 c -0.363597,0.05624 -0.666596,0.318714 -0.778704,0.678049 -0.11211,0.359335 -0.02121,0.756165 0.239368,1.02176 l 3.15723698,3.221515 -0.745374,4.552615 c -0.0606,0.374959 0.0909,0.756165 0.390867,0.978016 0.299967,0.22185 0.696895,0.249972 1.024132,0.07187 L 8.0008529,13.742214 11.888316,15.8826 c 0.327237,0.178105 0.724165,0.153108 1.024133,-0.07187 0.299967,-0.224975 0.451466,-0.603057 0.390866,-0.978016 L 12.554911,10.280099 15.712149,7.058584 C 15.972726,6.792989 16.066656,6.396159 15.951517,6.036824 15.836378,5.677489 15.53641,5.415019 15.172813,5.358775 l -4.35408,-0.662426 z"
     id="path182"
     style="stroke-width:0.0307695"
     inkscape:export-filename="path182.svg"
     inkscape:export-xdpi="96"
     inkscape:export-ydpi="96" />
</svg>
